Coordinates
version=1
nRows=24
nColumns=24
inDegrees=yes

Units are S.I. units (second, meters, Newtons, ...)
Angles are in degrees.

endheader
time	pelvis_tilt	pelvis_list	pelvis_rotation	pelvis_tx	pelvis_ty	pelvis_tz	hip_flexion_r	hip_adduction_r	hip_rotation_r	knee_angle_r	ankle_angle_r	subtalar_angle_r	mtp_angle_r	hip_flexion_l	hip_adduction_l	hip_rotation_l	knee_angle_l	ankle_angle_l	subtalar_angle_l	mtp_angle_l	lumbar_extension	lumbar_bending	lumbar_rotation
      1.77466667	      1.88403608	      7.49940844	     -4.44593959	      1.37461679	      1.02362103	      0.23502265	     15.59132935	     -7.38818571	      2.37239765	    -61.62686688	      7.01123539	    -13.07801178	      2.82007787	      2.71126966	     13.78753904	      1.53860527	     -7.08057713	      0.08013107	    -17.38875552	      7.66054979	     -1.79422600	     -8.54155706	      4.97881763
      1.77883333	      1.87257710	      7.40698949	     -4.15790504	      1.37913876	      1.02401627	      0.23446144	     15.98382654	     -7.26452808	      2.24459576	    -61.02632721	      7.08081107	    -13.13447505	      2.71553417	      2.26735809	     13.73269449	      1.92165704	     -6.84926422	      0.17476499	    -17.42378860	      7.58795102	     -1.85657795	     -8.43516317	      4.67124973
      1.78300000	      1.83008913	      7.34334052	     -3.87479295	      1.38369629	      1.02429574	      0.23391156	     16.41462193	     -7.18004532	      2.11836845	    -60.43357768	      7.22597714	    -13.14347823	      2.68264226	      1.87449970	     13.69425282	      2.20304090	     -6.63454323	      0.23383244	    -17.29815380	      7.56663286	     -1.86502645	     -8.33664535	      4.61196310
      1.78716667	      1.82288601	      7.27719100	     -3.58268908	      1.38819824	      1.02460853	      0.23337668	     16.79341447	     -7.09365125	      1.99882711	    -59.80209947	      7.30311284	    -13.16700263	      2.56822308	      1.43656675	     13.65731015	      2.58945944	     -6.41240655	      0.30927205	    -17.35214363	      7.48764143	     -1.92679185	     -8.26994495	      4.29091613
      1.79133333	      1.76995222	      7.20961274	     -3.28565315	      1.39272899	      1.02483206	      0.23284145	     17.21176987	     -7.01062234	      1.87236540	    -59.14684070	      7.40269840	    -13.15415147	      2.52223574	      1.06496576	     13.60525285	      2.89668300	     -6.22115680	      0.37797646	    -17.24733054	      7.45589902	     -1.92750427	     -8.18757750	      4.20648037
      1.79550000	      1.72771233	      7.14070684	     -2.99009161	      1.39721249	      1.02505581	      0.23232127	     17.60649851	     -6.92756194	      1.75556397	    -58.45891505	      7.48933361	    -13.14528068	      2.46846214	      0.69004219	     13.54969233	      3.21974932	     -6.04485227	      0.47224739	    -17.19463312	      7.41893710	     -1.94739229	     -8.10345836	      4.03315517
      1.79966667	      1.73626404	      7.09044507	     -2.72386002	      1.40170930	      1.02530661	      0.23183178	     17.94905329	     -6.86919101	      1.66213745	    -57.76074866	      7.56239528	    -13.13129914	      2.36868344	      0.23868680	     13.51549651	      3.56514556	     -5.80882820	      0.53646042	    -17.20614896	      7.34514653	     -2.02377364	     -8.03502555	      3.75033894
      1.80383333	      1.68489056	      7.03317011	     -2.42747303	      1.40622695	      1.02545838	      0.23132438	     18.33333234	     -6.80856824	      1.54925265	    -57.02838505	      7.65437009	    -13.08442686	      2.32468493	     -0.11403617	     13.46234114	      3.86335253	     -5.65566383	      0.61967735	    -17.11908169	      7.31422820	     -2.02575463	     -7.96428784	      3.66257620
      1.80800000	      1.62593579	      6.98706698	     -2.15412048	      1.41072623	      1.02554805	      0.23085716	     18.73005965	     -6.75681710	      1.46294376	    -56.29328502	      7.73310895	    -13.04500892	      2.29794431	     -0.47211925	     13.41561268	      4.15139842	     -5.45951096	      0.70987314	    -17.00732608	      7.29669862	     -2.02048284	     -7.89208746	      3.56460410
      1.81216667	      1.61338292	      6.94423631	     -1.86139320	      1.41518258	      1.02569616	      0.23037714	     19.05670014	     -6.71473929	      1.37403207	    -55.51827597	      7.79702546	    -12.99594850	      2.19781233	     -0.87037272	     13.37587746	      4.51973387	     -5.28593637	      0.76227113	    -17.05787828	      7.22051809	     -2.07646487	     -7.85525672	      3.21160367
      1.81633333	      1.56795182	      6.89951934	     -1.57705767	      1.41970620	      1.02577818	      0.22991211	     19.40613817	     -6.67692579	      1.28031302	    -54.71841808	      7.86010719	    -12.91712206	      2.16749169	     -1.22561713	     13.32424884	      4.80092513	     -5.13215098	      0.86230088	    -16.95712067	      7.19814126	     -2.07545051	     -7.79814299	      3.15624380
      1.82050000	      1.52311380	      6.85816144	     -1.29449262	      1.42414949	      1.02581685	      0.22946225	     19.75755214	     -6.64564809	      1.18814885	    -53.91236141	      7.91919965	    -12.84549170	      2.14032804	     -1.56953140	     13.27287960	      5.09048657	     -4.98848333	      0.96906437	    -16.87726183	      7.17914108	     -2.10043321	     -7.74180438	      3.03732778
      1.82466667	      1.50129013	      6.82930247	     -1.01589735	      1.42862811	      1.02586713	      0.22902515	     20.06509763	     -6.62453233	      1.12352881	    -53.07788147	      7.96478589	    -12.77129995	      2.06624118	     -1.95617215	     13.23527524	      5.43200298	     -4.81780418	      1.04632431	    -16.90179907	      7.11698001	     -2.14134486	     -7.71640105	      2.71321556
      1.82883333	      1.45206686	      6.78727292	     -0.72878963	      1.43306991	      1.02588159	      0.22858947	     20.38865503	     -6.59689263	      1.04017085	    -52.21292775	      8.00318208	    -12.68711068	      2.04133437	     -2.28334345	     13.17496382	      5.70616555	     -4.69571939	      1.13971162	    -16.79930929	      7.09814328	     -2.14330669	     -7.66333476	      2.64882945
      1.83300000	      1.41032807	      6.76679600	     -0.45267777	      1.43754198	      1.02584076	      0.22817465	     20.70590189	     -6.59345556	      0.97321916	    -51.35299919	      8.03737228	    -12.59950044	      2.01534422	     -2.63044304	     13.13512469	      5.98533705	     -4.55218120	      1.24338165	    -16.71890881	      7.07919240	     -2.15984352	     -7.63665763	      2.52175387
      1.83716667	      1.39660547	      6.73802317	     -0.18965919	      1.44201800	      1.02582819	      0.22777518	     20.97830930	     -6.58276140	      0.90973527	    -50.46289790	      8.05445146	    -12.51831394	      1.97101898	     -3.01499128	     13.08560381	      6.27794189	     -4.39114189	      1.36224164	    -16.69465966	      7.04060027	     -2.20515753	     -7.60921519	      2.28898766
      1.84133333	      1.34662007	      6.72395049	      0.08439609	      1.44644943	      1.02574089	      0.22738220	     21.28773397	     -6.58971735	      0.85052425	    -49.56777227	      8.07570087	    -12.42701074	      1.94974428	     -3.33053998	     13.04703693	      6.54601072	     -4.28702696	      1.46209699	    -16.59974146	      7.02410974	     -2.22122126	     -7.58917587	      2.20817543
      1.84550000	      1.32688229	      6.70414777	      0.34732613	      1.45090499	      1.02566936	      0.22701005	     21.54991270	     -6.59320699	      0.78824964	    -48.64801577	      8.07252139	    -12.35857541	      1.90968562	     -3.69538512	     12.99908658	      6.82227041	     -4.14770985	      1.59375522	    -16.54921466	      6.99004493	     -2.26762805	     -7.57211378	      1.98478764
      1.84966667	      1.27849661	      6.69068536	      0.61045763	      1.45535241	      1.02553591	      0.22663786	     21.83615006	     -6.60508275	      0.73353470	    -47.71720049	      8.08254114	    -12.26470159	      1.89260909	     -4.01502044	     12.95492861	      7.06818095	     -4.03549863	      1.70285876	    -16.44803512	      6.97774654	     -2.27639110	     -7.55249286	      1.91803116
      1.85383333	      1.21875107	      6.69349344	      0.84924978	      1.45985296	      1.02533337	      0.22631909	     22.13730632	     -6.62747845	      0.70478646	    -46.79008497	      8.07721364	    -12.18322042	      1.88288876	     -4.34140831	     12.92456810	      7.31021667	     -3.88080177	      1.83564745	    -16.32912695	      6.97322586	     -2.25294448	     -7.55729990	      1.86177034
      1.85800000	      1.19072997	      6.66422504	      1.13004220	      1.46426813	      1.02520988	      0.22593711	     22.36810817	     -6.63591676	      0.61645083	    -45.80473062	      8.04494994	    -12.11714382	      1.86653763	     -4.65796107	     12.85868412	      7.55765129	     -3.81894929	      1.98330357	    -16.26028497	      6.96230791	     -2.31491328	     -7.52317184	      1.71370508
      1.86216667	      1.17054683	      6.65517194	      1.38218533	      1.46876388	      1.02505348	      0.22560744	     22.58851285	     -6.65576832	      0.56382577	    -44.82169655	      7.99348093	    -12.08701243	      1.84000895	     -5.01680850	     12.81025403	      7.81411855	     -3.69331125	      2.13733548	    -16.19122526	      6.94086954	     -2.34155976	     -7.51509604	      1.46813765
      1.86633333	      1.11660270	      6.64865131	      1.64140181	      1.47322198	      1.02482211	      0.22527618	     22.84407510	     -6.68419740	      0.50284799	    -43.84120788	      7.97312538	    -12.01048645	      1.82883376	     -5.32331871	     12.76198190	      8.04896034	     -3.58946435	      2.26300556	    -16.08201354	      6.93335566	     -2.35839742	     -7.51059993	      1.41637331
      1.87050000	      1.07731025	      6.64654797	      1.89929187	      1.47770032	      1.02458949	      0.22494479	     23.07098394	     -6.72234200	      0.43242311	    -42.83892422	      7.92732891	    -11.95976187	      1.81693382	     -5.64850132	     12.71574699	      8.28666409	     -3.48181242	      2.41061608	    -15.98414216	      6.92704562	     -2.37773370	     -7.50655814	      1.31863340
